<?xml version="1.0" encoding="UTF-8"?>
<svg width="3600pt" height="3600pt" version="1.1" viewBox="0 0 3600 3600" xmlns="http://www.w3.org/2000/svg">
 <g>
  <path style="fill: #FEE97F" d="m262.8 1436.4h464.4v18h-136.8c-51.445 0-98.984 27.449-124.71 72-25.723 44.555-25.723 99.449 0 144 25.723 44.555 73.262 72 124.71 72h565.2c51.445 0 98.984-27.445 124.71-72 25.723-44.551 25.723-99.445 0-144-25.723-44.551-73.262-72-124.71-72h-140.4v-18h464.4c57.285 0 112.23-22.754 152.73-63.262 40.508-40.508 63.266-95.449 63.266-152.74v-748.8c0-57.289-22.758-112.23-63.266-152.74-40.508-40.508-95.449-63.262-152.73-63.262h-1216.8c-57.289 0-112.23 22.754-152.73 63.262-40.508 40.508-63.266 95.449-63.266 152.74v748.8c0 57.289 22.758 112.23 63.266 152.74 40.508 40.508 95.445 63.262 152.73 63.262zm72-892.8 1072.8 0.003906v604.8h-1072.8z"/>
  <path style="fill: #FEE97F" d="m3164.4 2649.6c85.008-94.27 130.08-217.86 125.71-344.72s-57.832-247.06-149.12-335.26c-91.285-88.195-213.26-137.49-340.19-137.49-126.93 0-248.91 49.297-340.19 137.49-91.289 88.199-144.75 208.4-149.12 335.26-4.3672 126.86 40.707 250.45 125.71 344.72-117.79 65.016-215.99 160.43-284.37 276.3-68.383 115.87-104.45 247.95-104.43 382.5v61.203c0 38.191 15.172 74.816 42.18 101.82 27.004 27.008 63.629 42.18 101.82 42.18h1216.8c38.191 0 74.82-15.172 101.82-42.18 27.004-27.004 42.176-63.629 42.176-101.82v-61.203c0.015625-134.54-36.043-266.63-104.43-382.5-68.383-115.87-166.58-211.29-284.38-276.3zm-363.6-529.2c53.469 0 104.75 21.242 142.55 59.051 37.809 37.805 59.047 89.082 59.047 142.55s-21.238 104.75-59.047 142.55c-37.805 37.809-89.082 59.051-142.55 59.051s-104.75-21.242-142.55-59.051c-37.805-37.805-59.047-89.082-59.047-142.55s21.242-104.75 59.047-142.55c37.809-37.809 89.086-59.051 142.55-59.051zm-457.2 1101.6c21.035-105.29 77.906-200.04 160.94-268.12s187.09-105.29 294.46-105.29 211.43 37.207 294.46 105.29 139.9 162.83 160.94 268.12z"/>
  <path style="fill: #FEE97F" d="m3171.6 1764c38.191 0 74.816-15.172 101.82-42.176 27.008-27.008 42.18-63.633 42.18-101.82v-720c0-114.57-45.516-224.45-126.53-305.47-81.016-81.016-190.9-126.53-305.47-126.53h-550.8l190.8-190.8c29.41-26.219 46.789-63.344 48.094-102.72 1.3008-39.383-13.59-77.574-41.203-105.68-27.613-28.105-65.535-43.672-104.93-43.066-39.395 0.60547-76.82 17.328-103.56 46.27l-439.2 439.2-18 21.602-7.1992 10.801-7.1992 14.398v25.199h-0.003906c-3.8789 19.004-3.8789 38.598 0 57.602v25.199l7.1992 14.398 7.1992 10.801 18 21.602 439.2 439.2c36.656 36.656 90.082 50.973 140.15 37.555 50.074-13.418 89.184-52.527 102.6-102.6 13.418-50.07-0.89844-103.5-37.555-140.15l-194.4-190.8h550.8c38.191 0 74.816 15.172 101.82 42.176 27.008 27.008 42.18 63.633 42.18 101.82v720c0 38.191 15.168 74.816 42.176 101.82 27.004 27.004 63.633 42.176 101.82 42.176z"/>
  <path style="fill: #FEE97F" d="m1746 3063.6 10.801-18v-7.1992l7.1992-18v-0.003906c3.8789-19.004 3.8789-38.594 0-57.598l-7.1992-18v-7.1992l-10.801-18v-7.1992l-18-21.602-439.2-442.8c-36.656-36.656-90.082-50.973-140.16-37.555-50.07 13.418-89.184 52.527-102.6 102.6-13.418 50.07 0.89844 103.5 37.555 140.15l194.4 190.8h-554.4c-38.191 0-74.82-15.172-101.82-42.176-27.008-27.008-42.176-63.633-42.176-101.82v-720c0-51.445-27.449-98.984-72-124.71-44.555-25.723-99.449-25.723-144 0-44.555 25.723-72 73.262-72 124.71v720c0 114.57 45.512 224.45 126.53 305.47s190.9 126.53 305.47 126.53h554.4l-190.8 190.8c-29.41 26.219-46.789 63.344-48.094 102.72-1.3008 39.383 13.59 77.574 41.199 105.68 27.613 28.105 65.539 43.672 104.93 43.066 39.398-0.60547 76.824-17.328 103.56-46.27l435.6-439.2 18-21.602z"/>
 </g>
</svg>